<?xml version="1.0" encoding="utf-8"?>
<!-- Generator: Adobe Illustrator 16.0.0, SVG Export Plug-In . SVG Version: 6.00 Build 0)  -->
<!DOCTYPE svg PUBLIC "-//W3C//DTD SVG 1.1//EN" "http://www.w3.org/Graphics/SVG/1.1/DTD/svg11.dtd">
<svg version="1.1" id="Calque_1" xmlns="http://www.w3.org/2000/svg" xmlns:xlink="http://www.w3.org/1999/xlink" x="0px" y="0px"
	 width="24.5px" height="27.833px" viewBox="0 0 24.5 27.833" enable-background="new 0 0 24.5 27.833" xml:space="preserve">
<g>
	<g>
		<path d="M20.999,10.444L16.949,2H7.051l-4.05,8.444L3,26h18L20.999,10.444z M19.2,24.221H4.8V10.889l3.6-7.111h7.2l3.602,7.111
			L19.2,24.221L19.2,24.221z M12,12.667c1.988,0,3.6-1.592,3.6-3.556c0-1.964-1.611-3.556-3.6-3.556c-1.989,0-3.6,1.592-3.6,3.556
			C8.4,11.074,10.012,12.667,12,12.667z M12,6.8c1.292,0,2.34,1.035,2.34,2.311c0,1.276-1.048,2.311-2.34,2.311
			c-1.293,0-2.34-1.035-2.34-2.311C9.66,7.835,10.707,6.8,12,6.8z M6.6,17.111h10.8v-1.778H6.6V17.111z M6.6,21.555h10.8v-1.777H6.6
			V21.555z"/>
	</g>
</g>
</svg>
