<?xml version="1.0" encoding="utf-8"?>
<!-- Generator: Adobe Illustrator 16.0.0, SVG Export Plug-In . SVG Version: 6.00 Build 0)  -->
<!DOCTYPE svg PUBLIC "-//W3C//DTD SVG 1.1//EN" "http://www.w3.org/Graphics/SVG/1.1/DTD/svg11.dtd">
<svg version="1.1" id="Layer_1" xmlns="http://www.w3.org/2000/svg" xmlns:xlink="http://www.w3.org/1999/xlink" x="0px" y="0px"
	 width="166.667px" height="111.061px" viewBox="70.743 -48.908 166.667 111.061"
	 enable-background="new 70.743 -48.908 166.667 111.061" xml:space="preserve">
<path fill="#a0b39e" d="M107.5,61.329c0-1.123,0.768-2.138,1.479-2.138L124.02,33.96c-7.015,5.507-19.563,11.589-26.657,11.589
	h-0.055c-2.959,0-4.273-1.479-4.273-3.698c0-12.246,22.848-32.137,32.793-32.137c2.466,0,3.699,1.151,3.699,3.453
	c0,4.932-8.795,14.794-8.959,14.794c-0.246,0-0.657-0.329-0.657-0.575c0,0,8.525-9.779,8.382-14.419
	c-0.035-1.114-1.016-1.969-2.13-2.015C117.21,10.587,94.35,30.07,94.35,41.85c0,1.479,0.657,2.384,2.877,2.384
	c8.466,0,24.246-10.191,24.246-10.191c-2.303,0-14.821,2.986-16.027,3.068c-0.521,0-0.986-0.137-0.986-0.604
	c0-0.574,0.658-0.821,2.303-0.985c2.739-0.303,15.041-3.563,20.548-3.563c1.041,0,2.466,0.548,2.466,1.507
	c0,0.822-0.905,1.809-1.397,1.809c-0.329,0-0.492-0.246-0.492-0.493c0-0.384,0.163-0.876,0.163-1.123
	c0-0.273-0.219-0.383-1.122-0.383c-0.385,0-0.878,0.219-0.933,0.438c-0.329,1.233-7.808,12.986-12.329,20.795
	c-0.985,1.726-4.355,7.645-5.424,7.645C107.691,62.151,107.5,61.794,107.5,61.329"/>
<path fill="#a0b39e" d="M145.39,34.945c0,0.22-0.138,0.438-0.41,0.658c-4.604,2.465-7.314,3.697-8.138,3.697
	c-0.903,0-1.26-0.521-1.26-1.368c0-0.575,0.191-1.344,0.438-2.165c-0.329,0-1.698,0.903-4.082,2.768
	c-2.384,1.808-3.041,2.027-3.369,2.027c-0.438,0-0.74-0.191-0.74-0.575c0-0.769,0.329-1.808,2.191-4.548
	c7.067-11.616,11.314-17.424,12.74-17.424c0.602,0,0.903,0.328,0.903,0.985c0,2.383-2.877,9.232-11.754,16.109
	c-0.328,0.438,0.027-0.082-2.384,3.452c3.945-2.851,6.164-4.273,6.658-4.273c0.984,0,1.26,0.438,1.26,1.067
	c0,0.768-0.438,1.781-0.438,2.466l0.082,0.083c1.315,0,3.563-0.933,6.739-2.795c0.658-0.384,1.041-0.575,1.151-0.575
	C145.253,34.535,145.39,34.671,145.39,34.945 M132.815,33.055c2.685-2.466,9.369-9.206,9.369-12.739
	c0-0.275-0.056-0.412-0.164-0.412C141.363,20.042,139.281,23.384,132.815,33.055"/>
<path fill="#a0b39e" d="M142.186,37.658c0-2.137,4.685-4.603,6.985-4.603c0.904,0,1.15,0.438,1.15,0.849
	c0,0.329-0.192,0.631-0.329,0.631l-0.109,1.014c0,0.739,0.22,1.616,1.261,1.616c2.22,0,7.15-2.63,7.15-2.63
	c0.164,0,0.657,0.493,0.657,0.739c0,0.329-5.589,3.123-7.89,3.123c-2.165,0-2.303-1.917-2.303-2.383v-0.082
	c-1.231,0.984-3.122,3.286-5.261,3.286C142.596,39.219,142.186,38.397,142.186,37.658 M148.569,34.562h-0.028
	c-1.506,0-5.123,1.507-5.123,3.123c0,0.137,0.192,0.273,0.439,0.273C145.062,37.905,147.829,35.219,148.569,34.562"/>
<path fill="#a0b39e" d="M168.569,35.274c0,0.412-5.59,4.686-8.138,4.686c-1.862,0-2.739-1.425-2.739-2.576
	c0-5.479,9.999-19.368,13.808-19.368c0.795,0,1.288,0.849,1.288,1.616c0,4.273-11.231,14.548-13.37,15.753
	c0,0-0.301,0.604-0.301,1.589c0,0.549,0.411,1.591,1.397,1.591c2.547,0,6.902-3.618,7.644-4.028
	C168.486,34.535,168.569,34.864,168.569,35.274 M159.911,33.466c1.042-0.247,11.645-10.574,11.645-13.396
	c0-0.438-0.22-0.739-0.521-0.739C168.624,19.33,161.474,29.384,159.911,33.466"/>
<path fill="#a0b39e" d="M167.035,37.055c0-1.015,0.383-1.863,1.096-2.575c0.246-0.411,0.959-1.068,1.699-1.068
	c0.328,0,0.768,0.191,0.768,0.768c0,0.575-1.233,1.096-1.81,1.425c0,0-0.438,0.302-0.438,1.425c0,0.19,0.247,0.603,0.85,0.603
	c2.355,0,6.685-2.19,8.165-3.096c0.163,0,0.246,0.164,0.246,0.329c0,0.328-0.083,0.657-0.246,0.739
	c-1.645,1.15-5.59,3.149-8.604,3.149C167.446,38.753,167.035,37.658,167.035,37.055 M171.638,30.973
	c0-0.302,0.245-0.439,0.521-0.439c0.384,0,0.877,0.302,0.877,0.905c0,0.355-0.355,0.466-0.521,0.466
	C172.213,31.905,171.638,31.384,171.638,30.973"/>
<rect x="152.996" y="4.063" transform="matrix(0.7071 -0.7071 0.7071 0.7071 40.2989 113.3325)" fill="none" stroke="#a0b39e" stroke-miterlimit="10" width="7.916" height="7.916"/>
<polygon fill="none" stroke="#a0b39e" stroke-miterlimit="10" points="165.245,-28.029 169.766,-32.558 165.51,-36.815 
	160.93,-32.229 "/>
<polygon fill="none" stroke="#a0b39e" stroke-miterlimit="10" points="156.512,-27.772 147.677,-18.982 143.43,-23.227 
	161.264,-41.061 156.952,-45.372 135.13,-23.549 152.68,-5.998 148.434,-1.752 130.884,-19.305 127.005,-15.425 147.989,5.56 
	156.952,-3.4 165.913,5.56 186.899,-15.425 182.509,-19.816 164.677,-1.983 160.43,-6.228 178.262,-24.061 174.012,-28.313 
	156.178,-10.48 151.934,-14.725 160.77,-23.515 "/>
<polygon fill="#a0b39e" points="183.5,28.046 183.5,35.423 188.067,35.423 188.067,36.71 182.114,36.71 182.114,28.046 "/>
<rect x="191.853" y="28.046" fill="#a0b39e" width="1.374" height="8.664"/>
<polygon fill="#a0b39e" points="201.977,36.747 200.528,36.747 196.927,28.046 198.486,28.046 201.247,35.088 204.02,28.046 
	205.566,28.046 "/>
<rect x="209.278" y="28.046" fill="#a0b39e" width="1.373" height="8.664"/>
<polygon fill="#a0b39e" points="221.283,34.209 221.283,28.046 222.669,28.046 222.669,36.71 221.617,36.71 216.703,30.596 
	216.703,36.71 215.305,36.71 215.305,28.046 216.369,28.046 "/>
<path fill="#a0b39e" d="M233.684,30.039c-0.62-0.605-1.535-0.928-2.34-0.928c-2.03,0-3.206,1.521-3.193,3.354
	c0,1.584,0.939,3.12,3.193,3.12c0.741,0,1.423-0.187,2.115-0.768v-1.758h-2.413v-1.238h3.7v3.553
	c-0.866,0.953-1.942,1.51-3.402,1.51c-3.182,0-4.556-2.115-4.556-4.419c0-2.5,1.598-4.628,4.556-4.628
	c1.15,0,2.313,0.434,3.205,1.313L233.684,30.039z"/>
<polygon fill="#a0b39e" points="79.502,36.71 73.103,36.71 73.103,28.046 79.465,28.046 79.465,29.396 74.489,29.396 74.489,31.735 
	79.267,31.735 79.267,33.022 74.489,33.022 74.489,35.349 79.502,35.349 "/>
<polygon fill="#a0b39e" points="85.145,28.046 85.145,35.423 89.712,35.423 89.712,36.71 83.758,36.71 83.758,28.046 "/>
<rect x="147.663" y="46.422" fill="#a0b39e" width="56.468" height="6.703"/>
<path fill="#FFFFFF" d="M154.658,48.753c-0.175-0.254-0.529-0.408-0.916-0.414c-0.497,0-0.855,0.207-0.855,0.563
	c0,0.358,0.411,0.46,0.898,0.529c0.762,0.105,1.486,0.316,1.486,1.147c-0.005,0.829-0.763,1.142-1.534,1.142
	c-0.709,0-1.253-0.217-1.593-0.841l0.443-0.296c0.267,0.45,0.727,0.608,1.153,0.608c0.444,0,0.938-0.148,0.938-0.613
	c0-0.403-0.43-0.54-0.947-0.608c-0.736-0.102-1.435-0.285-1.435-1.079c-0.006-0.768,0.763-1.063,1.429-1.063
	c0.533,0,1.068,0.127,1.381,0.624L154.658,48.753z"/>
<path fill="#FFFFFF" d="M163.205,49.8c0,1-0.607,1.915-1.894,1.915s-1.896-0.937-1.896-1.909c0-1.128,0.789-1.941,1.905-1.941
	C162.586,47.87,163.205,48.8,163.205,49.8 M161.312,51.17c0.921,0,1.307-0.649,1.307-1.358c0-0.684-0.392-1.394-1.296-1.407
	c-0.856,0-1.317,0.598-1.317,1.407C160.016,50.467,160.396,51.17,161.312,51.17"/>
<path fill="#FFFFFF" d="M170.732,51.16c-0.381,0.376-0.873,0.551-1.392,0.551c-1.344,0-1.946-0.926-1.951-1.898
	c-0.007-0.975,0.629-1.941,1.951-1.941c0.497,0,0.979,0.187,1.354,0.562l-0.397,0.381c-0.265-0.259-0.612-0.381-0.957-0.381
	c-0.941,0-1.369,0.691-1.364,1.376c0.005,0.677,0.406,1.349,1.364,1.349c0.345,0,0.726-0.144,0.983-0.401L170.732,51.16z"/>
<path fill="#FFFFFF" d="M178.238,51.635h-0.692l-1.127-1.279h-0.782v1.279h-0.594v-3.709c0.577,0,1.148,0.007,1.727,0.007
	c0.855,0,1.306,0.587,1.306,1.211c0,0.528-0.274,1.048-1.005,1.153l1.104,1.231L178.238,51.635z M175.636,48.473v1.343h1.127
	c0.49,0,0.708-0.313,0.708-0.661c0-0.334-0.218-0.682-0.702-0.682H175.636z"/>
<path fill="#FFFFFF" d="M185.13,50.858h-2.005l-0.349,0.777h-0.63l1.661-3.702h0.646l1.66,3.702h-0.63L185.13,50.858z
	 M184.131,48.557l-0.782,1.762h1.565L184.131,48.557z"/>
<polygon fill="#FFFFFF" points="190.843,48.466 189.626,48.466 189.626,47.933 192.652,47.933 192.652,48.466 191.44,48.466 
	191.44,51.635 190.843,51.635 "/>
<polygon fill="#FFFFFF" points="199.649,51.635 196.914,51.635 196.914,47.933 199.634,47.933 199.634,48.509 197.507,48.509 
	197.507,49.509 199.549,49.509 199.549,50.06 197.507,50.06 197.507,51.054 199.649,51.054 "/>
</svg>
