<?xml version="1.0" encoding="utf-8"?>
<!-- Generator: Adobe Illustrator 16.0.0, SVG Export Plug-In . SVG Version: 6.00 Build 0)  -->
<!DOCTYPE svg PUBLIC "-//W3C//DTD SVG 1.1//EN" "http://www.w3.org/Graphics/SVG/1.1/DTD/svg11.dtd">
<svg version="1.1" id="Layer_1" xmlns="http://www.w3.org/2000/svg" xmlns:xlink="http://www.w3.org/1999/xlink" x="0px" y="0px"
	 width="359px" height="107px" viewBox="0 0 359 107" enable-background="new 0 0 359 107" xml:space="preserve">
<g>
	<defs>
		<rect id="SVGID_1_" x="-292" y="-10.486" width="936.203" height="127.486"/>
	</defs>
	<clipPath id="SVGID_2_">
		<use xlink:href="#SVGID_1_"  overflow="visible"/>
	</clipPath>
	<g clip-path="url(#SVGID_2_)">
		<defs>
			<rect id="SVGID_3_" x="-292" y="-10.486" width="936.203" height="127.486"/>
		</defs>
		<clipPath id="SVGID_4_">
			<use xlink:href="#SVGID_3_"  overflow="visible"/>
		</clipPath>
		<g opacity="0.9" clip-path="url(#SVGID_4_)">
			<g>
				<defs>
					<rect id="SVGID_5_" x="-292" y="-10.486" width="936.203" height="127.486"/>
				</defs>
				<clipPath id="SVGID_6_">
					<use xlink:href="#SVGID_5_"  overflow="visible"/>
				</clipPath>
				<rect x="-292" y="-10.486" clip-path="url(#SVGID_6_)" fill="#FFFFFF" width="936.203" height="127.486"/>
			</g>
		</g>
		<path clip-path="url(#SVGID_4_)" fill="#1D2A5D" d="M90.016,18.833v-0.908h9.645c1.789,0,3.554,0.063,5.302,0
			c1.746-0.064,3.513-0.179,5.302-0.179c1.66,0,3.418,0.171,5.27,0.512c1.852,0.34,3.544,0.926,5.078,1.756
			c1.534,0.83,2.799,1.948,3.8,3.354c1,1.405,1.502,3.172,1.502,5.301c0,1.704-0.384,3.163-1.149,4.375
			c-0.768,1.214-1.758,2.206-2.97,2.971c-1.215,0.767-2.567,1.352-4.058,1.757c-1.49,0.404-2.961,0.67-4.407,0.798v0.32
			c2.086,0.382,3.949,0.766,5.59,1.149c1.639,0.384,3.055,0.958,4.247,1.726c1.192,0.766,2.139,1.831,2.841,3.195
			c0.705,1.361,1.141,3.193,1.311,5.491c0.213,2.684,0.383,4.835,0.511,6.453c0.128,1.618,0.308,2.874,0.543,3.77
			c0.234,0.893,0.553,1.489,0.959,1.787c0.403,0.299,0.989,0.446,1.756,0.446c0.853,0,1.553-0.243,2.108-0.732
			c0.553-0.491,1.041-0.947,1.469-1.375l0.638,0.576c-0.425,0.426-0.84,0.819-1.244,1.181c-0.407,0.363-0.874,0.672-1.407,0.926
			c-0.532,0.256-1.18,0.459-1.948,0.608c-0.766,0.147-1.724,0.223-2.874,0.223c-2.343,0-4.173-0.372-5.493-1.118
			c-1.321-0.743-2.3-1.67-2.939-2.776c-0.64-1.109-1.032-2.313-1.181-3.61c-0.15-1.299-0.245-2.522-0.288-3.673
			c-0.084-1.747-0.203-3.439-0.351-5.079c-0.15-1.639-0.501-3.096-1.054-4.375c-0.554-1.279-1.385-2.299-2.49-3.067
			c-1.11-0.767-2.663-1.149-4.665-1.149h-4.216v23.065h5.876v0.894H90.016v-0.894h5.876V18.833H90.016z M107.774,38.571
			c1.916,0,3.426-0.255,4.533-0.766c1.108-0.511,1.938-1.202,2.492-2.076c0.553-0.872,0.904-1.862,1.054-2.971
			c0.149-1.107,0.224-2.235,0.224-3.386c0-1.873-0.128-3.48-0.383-4.822c-0.257-1.341-0.682-2.448-1.279-3.321
			c-0.597-0.873-1.415-1.523-2.458-1.947c-1.043-0.426-2.375-0.64-3.993-0.64c-0.469,0-0.938,0.021-1.404,0.062
			c-0.471,0.045-0.938,0.088-1.407,0.13v19.737H107.774z"/>
		<polygon clip-path="url(#SVGID_4_)" fill="#1D2A5D" points="152.486,17.926 163.537,49.749 163.665,49.749 174.908,17.926 
			190.877,17.926 190.877,18.833 184.999,18.833 184.999,62.531 190.877,62.531 190.877,63.425 169.924,63.425 169.924,62.531 
			175.736,62.531 175.736,18.833 175.61,18.833 159.896,63.425 158.872,63.425 143.096,18.833 142.969,18.833 142.969,62.531 
			148.845,62.531 148.845,63.425 136.069,63.425 136.069,62.531 141.945,62.531 141.945,18.833 136.069,18.833 136.069,17.926 		"/>
		<path clip-path="url(#SVGID_4_)" fill="#1D2A5D" d="M197.548,62.532l18.305-44.606h1.725l19.348,44.606h5.493v0.893h-21.462
			v-0.893h5.939l-6.636-15.348h-15.331l-6.359,15.348h5.684v0.893h-12.071v-0.893H197.548z M205.249,46.29h14.692l-7.538-17.438
			L205.249,46.29z"/>
		<rect x="251.544" y="17.861" clip-path="url(#SVGID_4_)" fill="#1D2A5D" width="1.419" height="45.559"/>
		<path clip-path="url(#SVGID_4_)" fill="#1D2A5D" d="M41.986,1.72c-21.477,0-38.954,17.474-38.954,38.953
			c0,21.48,17.477,38.958,38.954,38.958c21.479,0,38.955-17.478,38.955-38.958C80.941,19.194,63.465,1.72,41.986,1.72
			 M41.986,73.896c-18.315,0-33.217-14.907-33.217-33.222c0-18.314,14.902-33.219,33.217-33.219
			c18.317,0,33.217,14.905,33.217,33.219C75.203,58.988,60.303,73.896,41.986,73.896"/>
		<path clip-path="url(#SVGID_4_)" fill="#1D2A5D" d="M41.816,9.792c-17.027,0-30.881,13.854-30.881,30.883
			c0,17.028,13.854,30.883,30.881,30.883c17.029,0,30.882-13.855,30.882-30.883C72.698,23.646,58.845,9.792,41.816,9.792
			 M41.816,71.044c-16.744,0-30.369-13.625-30.369-30.37c0-16.744,13.625-30.37,30.369-30.37c16.746,0,30.368,13.626,30.368,30.37
			C72.185,57.419,58.563,71.044,41.816,71.044"/>
		<path clip-path="url(#SVGID_4_)" fill="#808285" d="M29.583,20.51c3.424-5.325,9.937-5.839,9.937-5.839
			c-6.028-1.904-12.311,3.287-12.311,3.287L29.583,20.51z"/>
		<path clip-path="url(#SVGID_4_)" fill="#808285" d="M25.54,46.663l-1.151-5.103c-3.729,0.393-7.599,6.983-7.599,6.983
			c-1.597-3.365-0.065-9.506-0.065-9.506c-1.613,2.58-2.599,5.176-3.135,7.692c0.647,3.099,1.793,6.01,3.344,8.661
			c1.099-9.057,6.195-11.753,6.195-11.753c-6.963,9.197-1.01,18.112-1.01,18.112C20.436,54.514,25.54,46.663,25.54,46.663"/>
		<path clip-path="url(#SVGID_4_)" fill="#808285" d="M17.964,44.215c0,0,5.328-3.979,6.869-3.979c0,0-3.728-0.841-5.692,0.925
			c0,0-0.224-1.488,1.907-6.534C21.048,34.627,17.235,38.999,17.964,44.215"/>
		<path clip-path="url(#SVGID_4_)" fill="#808285" d="M23.081,37.879c0,0,0.463-4.218,3.184-7.163c0,0-4.245,1.603-5.721,8.23
			c0,0,4.039-0.504,4.936,0.279C25.479,39.225,24.554,37.628,23.081,37.879"/>
		<path clip-path="url(#SVGID_4_)" fill="#808285" d="M24.502,24.131c-9.664,6.298-7.08,16.703-7.08,16.703
			c0.865-7.377,8.526-12.583,8.526-12.583l0.482-0.352c0,0,6.035-3.527,6.02-8.492c0,0-1.735,3.92-6.058,3.196
			c-4.159-0.856-9.514,3.999-9.514,3.999c-0.01-0.102-0.016-0.207-0.021-0.313c-1.754,3.035-2.98,6.415-3.538,10.015
			C17.367,25.146,24.502,24.131,24.502,24.131"/>
		<path clip-path="url(#SVGID_4_)" fill="#808285" d="M57.558,22.603c-4.324,0.724-6.059-3.196-6.059-3.196
			c-0.014,4.966,6.022,8.492,6.022,8.492l0.482,0.352c0,0,7.66,5.206,8.525,12.582c0,0,2.583-10.404-7.079-16.702
			c0,0,7.134,1.014,11.183,12.173c-0.558-3.6-1.784-6.981-3.539-10.015c-0.005,0.106-0.011,0.21-0.021,0.313
			C67.072,26.602,61.717,21.746,57.558,22.603"/>
		<path clip-path="url(#SVGID_4_)" fill="#808285" d="M26.905,21.178c0,0-2.756-1.75-5.104-1.224
			c-0.824,0.796-1.603,1.643-2.329,2.534C20.859,22.081,25.666,20.733,26.905,21.178"/>
		<path clip-path="url(#SVGID_4_)" fill="#808285" d="M25.506,18.321c0,0,0.578-1.437,4.078-3.135c0,0-1.161,0.128-2.583,0.753
			c-0.988,0.431-2.1,1.097-3.039,2.12c-0.145,0.154-0.285,0.321-0.419,0.492c0,0,3.021,1.303,5.297,2.908
			C28.84,21.458,27.216,18.575,25.506,18.321"/>
		<path clip-path="url(#SVGID_4_)" fill="#808285" d="M55.761,62.282c0.505-6.055-2.984-9.9-2.984-9.9
			c0.124,2.523-1.175,4.499-1.175,4.499c2.1,4.074-0.155,7.507-0.252,7.657c0.71-1.602-0.298-4.248-0.298-4.248
			c-2.229,4.459-5.772,4.516-5.772,4.516s-3.372,4.134-6.608,0c0,0-3.545-0.057-5.772-4.516c0,0-1.01,2.646-0.299,4.248
			c-0.097-0.15-2.352-3.583-0.252-7.657c0,0-1.299-1.976-1.172-4.499c0,0-3.492,3.845-2.988,9.9c0,0-3.422-6.394-1.345-12.447
			c0,0-3.845,6.732-1.272,14.851c1.195,0.822,2.452,1.557,3.769,2.195c-0.113-1.998,0.067-4.231,0.924-6.28
			c0,0-0.576,2.993,1.429,7.292c0.857,0.323,1.732,0.607,2.623,0.85c-0.146-0.912-0.206-1.728-0.071-2.199
			c0.244-0.855,1.738,0.756,2.867,2.814c1.294,0.22,2.618,0.351,3.966,0.392c-0.214-0.351-0.382-0.762-0.382-1.187l1.279,0.559
			l1.279-0.559c0,0.425-0.17,0.836-0.383,1.187c1.348-0.041,2.672-0.172,3.967-0.392c1.127-2.059,2.621-3.67,2.866-2.814
			c0.134,0.472,0.075,1.287-0.071,2.199c0.892-0.242,1.766-0.526,2.623-0.85c2.004-4.299,1.428-7.292,1.428-7.292
			c0.858,2.049,1.037,4.282,0.925,6.28c1.316-0.639,2.573-1.373,3.77-2.195c2.572-8.118-1.273-14.851-1.273-14.851
			C59.183,55.889,55.761,62.282,55.761,62.282"/>
		<path clip-path="url(#SVGID_4_)" fill="#808285" d="M41.975,60.233c-0.43,1.486-2.176,2.722-2.176,2.722
			c1.066,0.335,2.176,2.915,2.176,2.915s1.111-2.58,2.178-2.915C44.152,62.955,42.406,61.72,41.975,60.233"/>
		<path clip-path="url(#SVGID_4_)" fill="#808285" d="M67.161,48.542c0,0-3.87-6.59-7.6-6.983l-1.15,5.104
			c0,0,5.104,7.851,3.422,15.085c0,0,5.952-8.916-1.009-18.114c0,0,5.093,2.697,6.193,11.756c1.551-2.652,2.696-5.563,3.343-8.665
			c-0.535-2.513-1.519-5.109-3.133-7.689C67.227,39.038,68.758,45.177,67.161,48.542"/>
		<path clip-path="url(#SVGID_4_)" fill="#808285" d="M64.479,22.488c-0.726-0.891-1.504-1.738-2.329-2.533
			c-2.348-0.526-5.103,1.223-5.103,1.223C58.285,20.733,63.09,22.081,64.479,22.488"/>
		<path clip-path="url(#SVGID_4_)" fill="#808285" d="M13.32,38.826c-0.465,1.946,0,5.659,0,5.659
			c0.671-4.65,3.648-11.617,3.648-11.617C14.391,34.764,13.32,38.826,13.32,38.826"/>
		<path clip-path="url(#SVGID_4_)" fill="#808285" d="M70.509,38.826c0,0-1.072-4.062-3.648-5.958c0,0,2.977,6.967,3.648,11.617
			C70.509,44.485,70.975,40.772,70.509,38.826"/>
		<path clip-path="url(#SVGID_4_)" fill="#808285" d="M62.602,34.189c2.132,5.043,1.908,6.532,1.908,6.532
			c-1.963-1.765-5.693-0.926-5.693-0.926c1.543,0,6.871,3.983,6.871,3.983C66.415,38.563,62.602,34.189,62.602,34.189"/>
		<path clip-path="url(#SVGID_4_)" fill="#808285" d="M63.106,38.506c-1.476-6.625-5.721-8.228-5.721-8.228
			c2.721,2.941,3.184,7.163,3.184,7.163c-1.473-0.254-2.399,1.346-2.399,1.346C59.068,38.001,63.106,38.506,63.106,38.506"/>
		<path clip-path="url(#SVGID_4_)" fill="#808285" d="M41.976,27.52c0,0,4.673-6.442,0-13.64h-0.002c-4.673,7.198,0,13.64,0,13.64
			H41.976z"/>
		<path clip-path="url(#SVGID_4_)" fill="#808285" d="M54.393,20.51l2.375-2.552c0,0-6.282-5.191-12.311-3.287
			C44.457,14.671,50.968,15.185,54.393,20.51"/>
		<path clip-path="url(#SVGID_4_)" fill="#808285" d="M58.471,18.321c-1.711,0.254-3.334,3.138-3.334,3.138
			c2.277-1.605,5.296-2.908,5.296-2.908c-0.134-0.171-0.274-0.338-0.418-0.492c-0.938-1.023-2.052-1.689-3.039-2.12
			c-1.422-0.625-2.583-0.753-2.583-0.753C57.894,16.884,58.471,18.321,58.471,18.321"/>
		<path clip-path="url(#SVGID_4_)" fill="#808285" d="M32.365,24.426c3.549-0.721,6.971,3.124,6.971,3.124
			c-2.046-7.049,0-11.283,0-11.283C33.465,19.979,32.365,24.426,32.365,24.426"/>
		<path clip-path="url(#SVGID_4_)" fill="#808285" d="M51.508,24.426c0,0-1.099-4.446-6.971-8.159c0,0,2.045,4.234,0,11.283
			C44.537,27.55,47.959,23.705,51.508,24.426"/>
		<path clip-path="url(#SVGID_4_)" fill="#808285" d="M49.438,55.713c-1.141,0.344-2.141,0.642-3.139,0.94
			c0.006,0.063,0.011,0.127,0.018,0.19c0.577,0.075,1.155,0.147,1.745,0.22c-0.421,1.613-1.549,1.715-5.55,0.557
			c-0.043-1.429,0.614-2.555,1.605-3.52c0.991-0.966,1.456-1.344,2.129-1.914c0.961-0.819-0.101-0.929-0.371-0.929h-3.95h-0.023
			h-3.949c-0.269,0-1.332,0.11-0.37,0.929c0.672,0.57,1.137,0.948,2.127,1.914c0.992,0.965,1.65,2.091,1.606,3.52
			c-4.002,1.158-5.13,1.057-5.55-0.557c0.59-0.072,1.168-0.145,1.744-0.22c0.007-0.063,0.012-0.128,0.019-0.19
			c-0.999-0.299-1.998-0.597-3.139-0.94c0.175,3.146,1.311,4.074,4.103,3.48c1.224-0.262,2.476-0.712,3.432,0.693
			c0.955-1.405,2.186-0.955,3.41-0.693C48.128,59.787,49.264,58.858,49.438,55.713 M42.205,54.42
			c-0.092,0.178-0.192,0.215-0.279,0.191l-0.013-0.003c-0.127-0.038-0.223-0.188-0.223-0.188s-0.537-0.891-1.95-1.999
			c-0.256-0.2,0-0.272,0-0.272h2.167h0.019h2.148c0,0,0.496,0.019,0.06,0.329C43.699,52.788,42.627,53.62,42.205,54.42"/>
		<path clip-path="url(#SVGID_4_)" fill="#808285" d="M29.784,33.387c0.724-0.835,1.571-1.571,2.256-2.437
			c1.089-1.375,2.384-2.199,4.203-2.091c0.484,0.029,0.979-0.127,1.624-0.223c-0.844-1.371-1.811-2.136-3.171-2.428
			c-2.468-0.529-4.282,0.441-5.899,3.109c-1.154,1.901-2.387,3.756-3.555,5.587C26.76,34.988,28.469,34.906,29.784,33.387"/>
		<path clip-path="url(#SVGID_4_)" fill="#808285" d="M58.568,34.894c-1.217-1.995-2.41-4-3.655-5.971
			c-0.432-0.685-0.962-1.317-1.492-1.935c-1.498-1.737-6.636-1.142-7.105,1.688c2.622-0.723,4.348,0.607,5.829,2.493
			c0.355,0.454,0.8,0.836,1.14,1.3C54.627,34.294,56.449,35.017,58.568,34.894"/>
		<path clip-path="url(#SVGID_4_)" fill="#808285" d="M32.917,51.894c0.338,1.544,1.763,2.69,3.717,2.769
			c-3.63-1.891-2.958-4.965-2.387-8.129c-1.734,0.764-2.402-0.235-3.017-1.437c-1.7-3.324-1.766-6.826-1.482-10.474
			c-0.187,0.576-0.416,1.143-0.555,1.731c-0.844,3.608-0.066,6.603,1.347,9.886C31.295,47.999,32.752,47.916,32.917,51.894"/>
		<path clip-path="url(#SVGID_4_)" fill="#808285" d="M50.935,51.894c0.164-3.978,1.62-3.895,2.376-5.654
			c1.413-3.283,2.192-6.278,1.347-9.886c-0.138-0.588-0.367-1.155-0.555-1.731c0.285,3.648,0.219,7.15-1.481,10.474
			c-0.615,1.202-1.284,2.201-3.016,1.437c0.57,3.164,1.242,6.238-2.388,8.129C49.171,54.584,50.597,53.438,50.935,51.894"/>
		<path clip-path="url(#SVGID_4_)" fill="#808285" d="M37.584,39.224c0.076-0.083,0.089-0.182-0.296-0.449
			c-1.078-0.753-3.504-2.354-4.64-2.992c0,0-0.371-0.197-0.177,0.014c1.047,1.131,2.211,2.699,2.211,2.699
			c-0.864,0-1.788-0.007-2.49-0.007c0,0-0.76-0.056-0.18,0.394c1.004,0.778,2.005,2.317,3.222,2.261
			c1.459-0.068,1.397,1.197,1.485,2.288c0.129,1.602,0.232,3.207,0.344,4.81c0.164-0.012,0.323-0.025,0.484-0.037
			c-0.225-2.564-0.468-5.13-0.66-7.697c-0.032-0.423,0.12-0.7,0.207-1.133C37.094,39.375,37.49,39.328,37.584,39.224"/>
		<path clip-path="url(#SVGID_4_)" fill="#808285" d="M51.202,35.782c-1.137,0.639-3.562,2.239-4.641,2.993
			c-0.384,0.267-0.37,0.365-0.296,0.449c0.097,0.103,0.492,0.15,0.492,0.15c0.086,0.434,0.237,0.711,0.207,1.133
			c-0.193,2.567-0.435,5.133-0.66,7.698c0.16,0.012,0.321,0.024,0.481,0.036c0.115-1.603,0.217-3.208,0.346-4.809
			c0.09-1.091,0.025-2.357,1.485-2.289c1.217,0.057,2.219-1.483,3.223-2.26c0.58-0.451-0.18-0.394-0.18-0.394
			c-0.702,0-1.627,0.006-2.49,0.006c0,0,1.162-1.568,2.21-2.699C51.571,35.586,51.202,35.782,51.202,35.782"/>
		<path clip-path="url(#SVGID_4_)" fill="#808285" d="M38.916,32.586c0.411,1.826,2.573,2.953,3.01,4.891
			c0.437-1.938,2.598-3.065,3.01-4.891c-0.519,0.428-1.916,0.756-3.01,0.958C40.833,33.342,39.434,33.014,38.916,32.586"/>
		<path clip-path="url(#SVGID_4_)" fill="#1D2A5D" d="M265.226,57.065h0.58c0.091,0,0.165-0.026,0.223-0.082
			c0.058-0.055,0.088-0.124,0.088-0.206V56.04c0-0.09-0.03-0.164-0.088-0.22c-0.058-0.052-0.128-0.079-0.209-0.079h-0.594
			c-0.082,0-0.153,0.027-0.216,0.079c-0.064,0.056-0.096,0.13-0.096,0.22v0.737c0,0.082,0.03,0.151,0.088,0.206
			C265.061,57.039,265.135,57.065,265.226,57.065"/>
		<path clip-path="url(#SVGID_4_)" fill="#1D2A5D" d="M286.123,64.739h-0.533c-0.082,0-0.156,0.027-0.225,0.082
			c-0.068,0.056-0.103,0.127-0.103,0.22v0.736c0,0.073,0.034,0.139,0.103,0.199c0.068,0.058,0.143,0.088,0.225,0.088h0.533
			c0.082,0,0.155-0.03,0.218-0.088c0.064-0.061,0.095-0.126,0.095-0.199v-0.736c0-0.093-0.03-0.164-0.095-0.22
			C286.278,64.767,286.205,64.739,286.123,64.739"/>
		<path clip-path="url(#SVGID_4_)" fill="#1D2A5D" d="M283.884,64.739h-0.534c-0.091,0-0.166,0.027-0.225,0.082
			c-0.059,0.056-0.088,0.127-0.088,0.22v0.736c0,0.073,0.029,0.139,0.088,0.199c0.059,0.058,0.134,0.088,0.225,0.088h0.534
			c0.082,0,0.155-0.03,0.219-0.088c0.063-0.061,0.095-0.126,0.095-0.199v-0.736c0-0.093-0.029-0.164-0.088-0.22
			C284.05,64.767,283.975,64.739,283.884,64.739"/>
		<path clip-path="url(#SVGID_4_)" fill="#1D2A5D" d="M304.065,57.203c-0.91,0-1.609,0.249-2.096,0.75
			c-0.487,0.5-0.731,1.219-0.731,2.157v1.31c0,0.157-0.014,0.288-0.041,0.399c-0.027,0.106-0.081,0.192-0.157,0.252
			c-0.077,0.058-0.167,0.106-0.266,0.142c-0.101,0.037-0.201,0.06-0.3,0.069c-0.102,0.01-0.184,0.015-0.247,0.015h-0.354h-0.083
			h-13.025h-0.082h-0.109c-0.082,0-0.177-0.005-0.286-0.015s-0.216-0.024-0.321-0.048c-0.104-0.023-0.2-0.055-0.287-0.095
			c-0.086-0.042-0.144-0.099-0.171-0.173v-3.756c0-0.072-0.024-0.133-0.074-0.183c-0.05-0.051-0.111-0.075-0.185-0.075h-0.628
			c-0.072,0-0.134,0.024-0.185,0.075c-0.05,0.05-0.074,0.11-0.074,0.183v3.579c0,0.119-0.036,0.211-0.104,0.281
			c-0.067,0.068-0.151,0.118-0.252,0.15c-0.101,0.031-0.205,0.051-0.314,0.061c-0.11,0.01-0.21,0.015-0.302,0.015h-0.531h-0.082
			h-12.702v-0.001h-1.268v-4.085c0-0.072-0.022-0.133-0.063-0.183c-0.04-0.051-0.097-0.075-0.171-0.075h-0.668
			c-0.063,0-0.12,0.024-0.17,0.075c-0.051,0.05-0.077,0.11-0.077,0.183v4.071v0.533v0.505c0,0.172-0.001,0.357-0.005,0.553
			c-0.005,0.196-0.007,0.416-0.007,0.663c-0.228,0.044-0.44,0.072-0.635,0.082c-0.196,0.008-0.413,0.012-0.65,0.012
			c-0.692,0-1.245-0.084-1.66-0.251c-0.413-0.169-0.73-0.401-0.954-0.696c-0.223-0.296-0.368-0.647-0.437-1.053
			c-0.07-0.404-0.103-0.844-0.103-1.316c0-0.074,0.001-0.164,0.008-0.274c0.004-0.109,0.01-0.224,0.019-0.348
			c0.008-0.124,0.021-0.245,0.035-0.37c0.012-0.122,0.024-0.238,0.034-0.347c0.008-0.183-0.062-0.274-0.205-0.274h-0.574
			c-0.091,0-0.155,0.02-0.191,0.055c-0.035,0.037-0.063,0.104-0.082,0.206c-0.027,0.127-0.051,0.276-0.068,0.443
			c-0.019,0.169-0.033,0.34-0.047,0.513c-0.015,0.172-0.025,0.333-0.035,0.485c-0.008,0.148-0.014,0.264-0.014,0.346
			c0,0.648,0.073,1.225,0.22,1.728c0.144,0.507,0.384,0.934,0.717,1.278c0.332,0.346,0.77,0.607,1.311,0.785s1.208,0.266,2,0.266
			c0.364,0,0.729-0.016,1.095-0.046c0.362-0.033,0.719-0.086,1.063-0.158c0.191-0.045,0.287-0.143,0.287-0.286
			c0.009-0.109,0.016-0.241,0.021-0.396s0.008-0.316,0.008-0.485v-0.504V63.47h1.187h0.081h12.695l0.007,0.001h0.449
			c0.256,0,0.54-0.029,0.855-0.09c0.314-0.059,0.585-0.18,0.813-0.362c0.209,0.183,0.474,0.304,0.798,0.362
			c0.322,0.061,0.626,0.09,0.907,0.09h0.164V63.47h13.025h0.083h0.137c0.382,0,0.73-0.047,1.051-0.144
			c0.318-0.095,0.555-0.266,0.711-0.511c0.228,0.291,0.535,0.506,0.922,0.647c0.387,0.143,0.835,0.213,1.345,0.213
			c0.983,0,1.693-0.244,2.13-0.73c0.438-0.488,0.655-1.204,0.655-2.152v-0.696c0-0.946-0.23-1.665-0.695-2.156
			C305.664,57.447,304.976,57.203,304.065,57.203 M305.678,60.726c0,0.674-0.123,1.153-0.37,1.44
			c-0.245,0.287-0.668,0.431-1.27,0.431c-0.428,0-0.777-0.071-1.052-0.211c-0.272-0.143-0.455-0.413-0.546-0.813
			c-0.036-0.209-0.054-0.46-0.054-0.751v-0.601c0-0.629,0.13-1.109,0.389-1.44c0.258-0.333,0.688-0.499,1.29-0.499
			c0.591,0,1.008,0.169,1.25,0.505c0.241,0.336,0.362,0.814,0.362,1.435V60.726z"/>
		<path clip-path="url(#SVGID_4_)" fill="#1D2A5D" d="M310.532,52.886c0.041-0.017,0.062-0.062,0.062-0.137v-0.217
			c0-0.11-0.077-0.165-0.232-0.165h-0.915c-0.072-0.037-0.142-0.115-0.205-0.239c-0.063-0.123-0.096-0.28-0.096-0.471
			c0-0.409,0.241-0.614,0.724-0.614c0.046,0,0.124,0.002,0.233,0.007c0.108,0.003,0.173,0.005,0.19,0.005
			c0.118,0,0.178-0.049,0.178-0.148v-0.192c0-0.073-0.05-0.127-0.15-0.164c-0.091-0.018-0.182-0.033-0.273-0.04
			c-0.091-0.01-0.173-0.015-0.245-0.015c-0.41,0-0.728,0.089-0.95,0.266c-0.223,0.178-0.334,0.458-0.334,0.841
			c0,0.136,0.018,0.275,0.055,0.415c0.036,0.142,0.095,0.264,0.177,0.362h-0.231c-0.163,0-0.246,0.047-0.246,0.137v0.232
			c0,0.11,0.083,0.164,0.246,0.164h1.844C310.435,52.913,310.491,52.906,310.532,52.886"/>
		<path clip-path="url(#SVGID_4_)" fill="#1D2A5D" d="M325.34,56.177h0.534c0.081,0,0.153-0.027,0.218-0.082
			c0.063-0.054,0.096-0.122,0.096-0.204v-0.737c0-0.092-0.033-0.164-0.096-0.219c-0.064-0.055-0.137-0.082-0.218-0.082h-0.534
			c-0.082,0-0.157,0.027-0.225,0.082c-0.068,0.055-0.104,0.127-0.104,0.219v0.737c0,0.082,0.035,0.15,0.104,0.204
			C325.183,56.149,325.258,56.177,325.34,56.177"/>
		<path clip-path="url(#SVGID_4_)" fill="#1D2A5D" d="M323.101,56.177h0.532c0.082,0,0.154-0.027,0.219-0.082
			c0.063-0.054,0.097-0.122,0.097-0.204v-0.737c0-0.092-0.03-0.164-0.09-0.219c-0.059-0.055-0.135-0.082-0.226-0.082h-0.532
			c-0.092,0-0.166,0.027-0.225,0.082c-0.061,0.055-0.089,0.127-0.089,0.219v0.737c0,0.082,0.028,0.15,0.089,0.204
			C322.935,56.149,323.009,56.177,323.101,56.177"/>
		<path clip-path="url(#SVGID_4_)" fill="#1D2A5D" d="M341.973,53.214h-0.669c-0.073,0-0.135,0.024-0.184,0.074
			c-0.05,0.052-0.075,0.113-0.075,0.185v8.332c0,0.236-0.035,0.378-0.104,0.423c-0.068,0.045-0.233,0.069-0.498,0.069h-2.028h-0.081
			h-0.108c-0.082,0-0.179-0.005-0.287-0.014c-0.109-0.011-0.218-0.026-0.32-0.05c-0.106-0.021-0.201-0.054-0.288-0.095
			c-0.087-0.042-0.143-0.098-0.169-0.171v-8.495c0-0.072-0.024-0.133-0.07-0.185c-0.046-0.05-0.104-0.074-0.177-0.074h-0.669
			c-0.073,0-0.135,0.024-0.184,0.074c-0.051,0.052-0.075,0.113-0.075,0.185v8.318c0,0.117-0.034,0.211-0.104,0.279
			c-0.068,0.068-0.151,0.118-0.253,0.149c-0.1,0.034-0.204,0.053-0.313,0.063c-0.109,0.009-0.209,0.014-0.3,0.014h-0.643h-0.083
			h-7.938h-0.082h-0.109c-0.082,0-0.178-0.005-0.286-0.014c-0.11-0.011-0.218-0.026-0.322-0.05c-0.104-0.021-0.2-0.054-0.287-0.095
			c-0.086-0.042-0.144-0.098-0.171-0.171v-3.757c0-0.071-0.024-0.133-0.075-0.184c-0.05-0.049-0.11-0.075-0.184-0.075h-0.628
			c-0.073,0-0.135,0.026-0.186,0.075c-0.049,0.051-0.073,0.112-0.073,0.184v3.58c0,0.117-0.035,0.211-0.104,0.279
			c-0.067,0.068-0.151,0.118-0.252,0.149c-0.101,0.034-0.205,0.053-0.314,0.063c-0.109,0.009-0.209,0.014-0.301,0.014h-0.532h-0.082
			h-10.992h-0.082h-0.259c-0.145,0-0.275-0.01-0.389-0.028c-0.114-0.019-0.209-0.055-0.286-0.108
			c-0.078-0.056-0.137-0.135-0.178-0.241c-0.041-0.103-0.061-0.248-0.061-0.429v-7.293c0-0.072-0.024-0.137-0.07-0.192
			c-0.046-0.054-0.104-0.082-0.178-0.082h-0.668c-0.073,0-0.135,0.028-0.185,0.082c-0.051,0.056-0.075,0.12-0.075,0.192v7.552
			c0,0.346,0.038,0.628,0.116,0.846c0.078,0.22,0.192,0.396,0.348,0.527s0.342,0.223,0.561,0.273s0.473,0.073,0.764,0.073h0.56
			h0.082h10.992h0.082h0.368c0.256,0,0.54-0.028,0.854-0.088c0.313-0.06,0.585-0.18,0.812-0.361
			c0.209,0.182,0.477,0.302,0.799,0.361c0.323,0.06,0.627,0.088,0.909,0.088h0.082h0.082h7.938h0.083h0.52
			c0.254,0,0.538-0.028,0.854-0.088c0.314-0.06,0.584-0.18,0.813-0.362c0.1,0.092,0.22,0.168,0.361,0.227
			c0.141,0.058,0.286,0.104,0.437,0.136c0.15,0.033,0.304,0.055,0.458,0.07c0.154,0.013,0.3,0.018,0.437,0.018h0.082h0.081h1.66
			c0.154,0,0.32-0.002,0.498-0.005c0.178-0.005,0.349-0.013,0.512-0.028c0.165-0.014,0.315-0.026,0.452-0.04
			c0.136-0.015,0.241-0.035,0.313-0.063c0.11-0.045,0.184-0.1,0.219-0.162c0.035-0.065,0.063-0.143,0.081-0.234
			c0.02-0.108,0.032-0.23,0.041-0.368c0.011-0.137,0.017-0.276,0.021-0.423c0.004-0.146,0.007-0.287,0.007-0.423v-0.369v-7.88
			c0-0.072-0.022-0.133-0.069-0.185C342.104,53.238,342.046,53.214,341.973,53.214"/>
		<path clip-path="url(#SVGID_4_)" fill="#1D2A5D" d="M263.576,38.012h0.532c0.082,0,0.154-0.028,0.219-0.083
			c0.063-0.054,0.096-0.121,0.096-0.204v-0.737c0-0.092-0.03-0.164-0.089-0.219c-0.06-0.054-0.134-0.082-0.226-0.082h-0.532
			c-0.092,0-0.166,0.028-0.226,0.082c-0.059,0.055-0.089,0.127-0.089,0.219v0.737c0,0.083,0.03,0.15,0.089,0.204
			C263.41,37.983,263.484,38.012,263.576,38.012"/>
		<path clip-path="url(#SVGID_4_)" fill="#1D2A5D" d="M265.814,38.012h0.533c0.082,0,0.155-0.028,0.218-0.083
			c0.064-0.054,0.097-0.121,0.097-0.204v-0.737c0-0.092-0.032-0.164-0.097-0.219c-0.063-0.054-0.136-0.082-0.218-0.082h-0.533
			c-0.082,0-0.155,0.028-0.225,0.082c-0.068,0.055-0.102,0.127-0.102,0.219v0.737c0,0.083,0.033,0.15,0.102,0.204
			C265.659,37.983,265.732,38.012,265.814,38.012"/>
		<path clip-path="url(#SVGID_4_)" fill="#1D2A5D" d="M283.901,47.106h-0.533c-0.09,0-0.166,0.028-0.225,0.083
			c-0.06,0.054-0.088,0.126-0.088,0.218v0.738c0,0.072,0.028,0.137,0.088,0.198c0.059,0.058,0.135,0.088,0.225,0.088h0.533
			c0.083,0,0.154-0.03,0.219-0.088c0.064-0.061,0.096-0.126,0.096-0.198v-0.738c0-0.092-0.029-0.164-0.09-0.218
			C284.067,47.134,283.993,47.106,283.901,47.106"/>
		<path clip-path="url(#SVGID_4_)" fill="#1D2A5D" d="M286.142,47.106h-0.532c-0.083,0-0.157,0.028-0.227,0.083
			c-0.067,0.054-0.102,0.126-0.102,0.218v0.738c0,0.072,0.034,0.137,0.102,0.198c0.069,0.058,0.144,0.088,0.227,0.088h0.532
			c0.081,0,0.154-0.03,0.218-0.088c0.063-0.061,0.096-0.126,0.096-0.198v-0.738c0-0.092-0.032-0.164-0.096-0.218
			C286.296,47.134,286.223,47.106,286.142,47.106"/>
		<path clip-path="url(#SVGID_4_)" fill="#1D2A5D" d="M298.431,40.566c0-0.074-0.023-0.134-0.068-0.185
			c-0.046-0.051-0.108-0.074-0.19-0.074h-0.656c-0.073,0-0.13,0.023-0.171,0.074c-0.041,0.051-0.062,0.111-0.062,0.185
			c0.01,0.355,0.016,0.681,0.021,0.983c0.005,0.301,0.008,0.592,0.008,0.875v0.845v0.902c0,0.236-0.038,0.378-0.11,0.423
			s-0.24,0.069-0.505,0.069h-0.873h-0.083h-8.957H286.7h-0.108c-0.082,0-0.178-0.005-0.287-0.014
			c-0.108-0.01-0.216-0.025-0.32-0.048c-0.104-0.024-0.2-0.055-0.287-0.095c-0.086-0.042-0.144-0.099-0.171-0.172v-3.756
			c0-0.072-0.025-0.133-0.074-0.183c-0.05-0.05-0.112-0.075-0.185-0.075h-0.629c-0.071,0-0.134,0.025-0.184,0.075
			c-0.05,0.05-0.075,0.111-0.075,0.183v3.579c0,0.119-0.035,0.211-0.103,0.281c-0.068,0.068-0.152,0.118-0.252,0.15
			c-0.101,0.031-0.205,0.051-0.315,0.061c-0.108,0.009-0.21,0.014-0.3,0.014h-0.533h-0.082h-14.043h-0.082h-0.232
			c-0.292,0-0.522-0.052-0.695-0.158c-0.174-0.104-0.26-0.34-0.26-0.702v-3.837c0-0.075-0.012-0.132-0.034-0.172
			c-0.022-0.042-0.08-0.07-0.172-0.09c-0.1-0.026-0.218-0.051-0.354-0.074c-0.136-0.022-0.28-0.043-0.431-0.061
			s-0.304-0.032-0.457-0.041c-0.155-0.011-0.292-0.014-0.409-0.014c-0.52,0-0.995,0.057-1.428,0.172
			c-0.432,0.111-0.806,0.291-1.12,0.532c-0.314,0.241-0.559,0.552-0.73,0.935c-0.173,0.382-0.26,0.842-0.26,1.379v0.354
			c0,0.885,0.228,1.559,0.683,2.021c0.455,0.466,1.106,0.698,1.953,0.698h0.123c0.382,0,0.735-0.044,1.058-0.13
			c0.323-0.086,0.563-0.23,0.718-0.431c0.146,0.292,0.357,0.497,0.636,0.616c0.277,0.119,0.621,0.177,1.031,0.177h0.382h0.082
			h14.036c0.003,0,0.005,0.001,0.005,0.001h0.452c0.255,0,0.54-0.03,0.855-0.09c0.313-0.059,0.585-0.18,0.813-0.362
			c0.209,0.182,0.476,0.303,0.798,0.362c0.323,0.06,0.626,0.09,0.908,0.09h0.164v-0.001h8.95c0,0,0.004,0.001,0.007,0.001h0.615
			c0.154,0,0.318-0.003,0.491-0.008s0.341-0.013,0.506-0.027c0.163-0.013,0.309-0.028,0.436-0.04
			c0.129-0.015,0.228-0.036,0.301-0.063c0.109-0.045,0.185-0.1,0.226-0.163c0.041-0.064,0.071-0.141,0.088-0.233
			c0.028-0.209,0.044-0.5,0.049-0.874c0.005-0.373,0.007-0.777,0.007-1.215v-0.704v-0.573c0-0.186-0.002-0.384-0.007-0.593
			S298.439,40.874,298.431,40.566 M266.334,43.759c0,0.146-0.036,0.267-0.109,0.363c-0.072,0.096-0.168,0.171-0.287,0.226
			c-0.118,0.055-0.25,0.092-0.395,0.109c-0.146,0.02-0.287,0.028-0.424,0.028h-0.26c-0.592,0-1.011-0.154-1.256-0.459
			c-0.246-0.305-0.37-0.734-0.37-1.281v-0.288c0-0.365,0.059-0.67,0.172-0.911c0.112-0.243,0.269-0.435,0.465-0.576
			c0.194-0.143,0.43-0.24,0.702-0.295c0.273-0.055,0.574-0.082,0.901-0.082c0.119,0,0.246,0.005,0.382,0.013
			c0.138,0.009,0.297,0.023,0.479,0.042V43.759z"/>
		<path clip-path="url(#SVGID_4_)" fill="#1D2A5D" d="M297.109,47.106h-0.581c-0.081,0-0.151,0.028-0.215,0.083
			c-0.063,0.054-0.095,0.126-0.095,0.218v0.738c0,0.072,0.031,0.137,0.095,0.198c0.063,0.058,0.134,0.088,0.215,0.088h0.581
			c0.081,0,0.153-0.03,0.216-0.088c0.063-0.061,0.096-0.126,0.096-0.198v-0.738c0-0.092-0.032-0.164-0.096-0.218
			C297.263,47.134,297.19,47.106,297.109,47.106"/>
		<path clip-path="url(#SVGID_4_)" fill="#1D2A5D" d="M319.857,37.984h0.58c0.09,0,0.164-0.027,0.222-0.082
			c0.059-0.054,0.088-0.122,0.088-0.204v-0.737c0-0.092-0.029-0.164-0.088-0.219c-0.058-0.056-0.127-0.082-0.209-0.082h-0.593
			c-0.082,0-0.153,0.026-0.217,0.082c-0.063,0.055-0.096,0.127-0.096,0.219v0.737c0,0.082,0.03,0.15,0.089,0.204
			C319.692,37.957,319.767,37.984,319.857,37.984"/>
		<path clip-path="url(#SVGID_4_)" fill="#1D2A5D" d="M352.757,35.581h-0.669c-0.073,0-0.135,0.025-0.184,0.074
			c-0.05,0.052-0.075,0.113-0.075,0.185v8.332c0,0.236-0.035,0.377-0.103,0.422c-0.069,0.045-0.235,0.07-0.499,0.07h-1.011h-0.083
			h-8.956h-0.083H341c-0.073,0-0.164-0.01-0.272-0.028c-0.109-0.019-0.217-0.05-0.321-0.096c-0.105-0.045-0.198-0.11-0.28-0.192
			c-0.081-0.082-0.127-0.186-0.136-0.313c0.018-0.1,0.029-0.214,0.034-0.342c0.005-0.127,0.005-0.246,0.005-0.356v-0.764
			c0-0.956-0.23-1.679-0.695-2.171c-0.464-0.491-1.152-0.737-2.063-0.737s-1.609,0.251-2.097,0.751
			c-0.487,0.501-0.73,1.221-0.73,2.157v1.312c0,0.154-0.014,0.286-0.04,0.396c-0.02,0.091-0.066,0.161-0.145,0.21
			c-0.077,0.052-0.166,0.091-0.266,0.118c-0.101,0.027-0.203,0.042-0.308,0.047c-0.104,0.004-0.188,0.008-0.253,0.008h-0.354h-0.082
			h-8.958h-0.082h-1.638c0.136-0.092,0.261-0.222,0.375-0.389c0.114-0.17,0.212-0.356,0.294-0.561
			c0.081-0.205,0.145-0.422,0.19-0.649c0.047-0.228,0.068-0.45,0.068-0.669v-0.259c0-0.465-0.075-0.867-0.225-1.203
			c-0.151-0.336-0.362-0.611-0.636-0.825c-0.273-0.215-0.599-0.372-0.977-0.472s-0.79-0.15-1.236-0.15
			c-0.272,0-0.546,0.023-0.818,0.068c-0.273,0.045-0.537,0.108-0.792,0.186c-0.255,0.077-0.489,0.172-0.703,0.286
			c-0.214,0.114-0.399,0.237-0.554,0.375c-0.146,0.118-0.225,0.236-0.232,0.355l-0.014,0.397c0,0.034,0.002,0.076,0.007,0.122
			c0.003,0.047,0.015,0.082,0.034,0.108l1.283,3.28h-2.115h-0.083h-12.662h-0.082h-1.175v-4.085c0-0.073-0.021-0.133-0.067-0.184
			c-0.046-0.05-0.101-0.075-0.164-0.075h-0.669c-0.073,0-0.132,0.025-0.178,0.075c-0.046,0.051-0.067,0.111-0.067,0.184v6.05
			c0,0.301-0.024,0.541-0.069,0.717c-0.046,0.177-0.128,0.314-0.246,0.404c-0.117,0.09-0.272,0.15-0.464,0.176
			c-0.19,0.028-0.437,0.042-0.737,0.042h-0.286c-0.156,0-0.232,0.063-0.232,0.192v0.587c0,0.062,0.014,0.11,0.041,0.143
			c0.026,0.031,0.087,0.057,0.178,0.075c0.091,0.019,0.211,0.032,0.361,0.041c0.15,0.008,0.248,0.013,0.294,0.013
			c0.527,0,0.953-0.063,1.275-0.19c0.323-0.128,0.576-0.351,0.759-0.669c0.1-0.183,0.168-0.397,0.205-0.643
			c0.036-0.246,0.054-0.515,0.054-0.806v-0.874h1.188h0.082h12.662h0.083h7.688h0.082h8.958h0.082h0.246
			c0.337,0,0.65-0.033,0.941-0.102s0.528-0.207,0.71-0.416c0.209,0.308,0.512,0.54,0.908,0.688c0.397,0.151,0.85,0.227,1.36,0.227
			c1.027,0,1.756-0.31,2.184-0.929c0.173,0.182,0.404,0.316,0.69,0.403c0.287,0.085,0.58,0.129,0.881,0.129h0.095h0.083h8.956h0.083
			h0.642c0.154,0,0.319-0.002,0.499-0.006c0.177-0.005,0.349-0.013,0.512-0.028c0.164-0.013,0.315-0.027,0.45-0.04
			c0.137-0.014,0.242-0.035,0.314-0.063c0.11-0.045,0.183-0.099,0.219-0.162c0.035-0.065,0.063-0.142,0.082-0.234
			c0.019-0.109,0.031-0.231,0.041-0.369c0.009-0.137,0.016-0.276,0.021-0.423c0.004-0.144,0.007-0.287,0.007-0.423V43.72v-7.88
			c0-0.072-0.022-0.133-0.068-0.185C352.888,35.606,352.83,35.581,352.757,35.581 M322.113,42.423c0,0.555-0.134,1.043-0.402,1.461
			c-0.268,0.419-0.639,0.683-1.113,0.792h-1.011l-1.393-3.578c0.337-0.226,0.691-0.373,1.065-0.437
			c0.372-0.063,0.678-0.095,0.914-0.095c0.602,0,1.075,0.134,1.421,0.402c0.346,0.269,0.519,0.704,0.519,1.307V42.423z
			 M338.883,43.297c0,0.628-0.123,1.095-0.369,1.4c-0.245,0.305-0.668,0.457-1.269,0.457c-0.438,0-0.792-0.086-1.066-0.259
			c-0.271-0.173-0.451-0.45-0.533-0.833c-0.036-0.209-0.054-0.464-0.054-0.765v-0.628c0-0.629,0.13-1.106,0.389-1.434
			c0.26-0.328,0.69-0.492,1.291-0.492c0.59,0,1.008,0.167,1.249,0.499c0.241,0.333,0.362,0.809,0.362,1.427V43.297z"/>
		<path clip-path="url(#SVGID_4_)" fill="#1D2A5D" d="M356.252,35.566h-0.668c-0.073,0-0.135,0.027-0.184,0.083
			c-0.052,0.054-0.076,0.119-0.076,0.191v9.725c0,0.071,0.024,0.135,0.076,0.189c0.049,0.055,0.11,0.083,0.184,0.083h0.668
			c0.074,0,0.132-0.028,0.178-0.083c0.045-0.054,0.069-0.118,0.069-0.189V35.84c0-0.072-0.024-0.137-0.069-0.191
			C356.384,35.593,356.326,35.566,356.252,35.566"/>
		<path clip-path="url(#SVGID_4_)" fill="#1D2A5D" d="M265.812,20.313h0.533c0.082,0,0.155-0.027,0.218-0.083
			c0.064-0.054,0.096-0.121,0.096-0.203V19.29c0-0.092-0.031-0.164-0.096-0.219c-0.063-0.054-0.136-0.082-0.218-0.082h-0.533
			c-0.082,0-0.155,0.028-0.224,0.082c-0.068,0.055-0.103,0.127-0.103,0.219v0.737c0,0.082,0.034,0.149,0.103,0.203
			C265.656,20.286,265.729,20.313,265.812,20.313"/>
		<path clip-path="url(#SVGID_4_)" fill="#1D2A5D" d="M263.574,20.313h0.532c0.082,0,0.154-0.027,0.219-0.083
			c0.063-0.054,0.096-0.121,0.096-0.203V19.29c0-0.092-0.03-0.164-0.089-0.219c-0.06-0.054-0.135-0.082-0.226-0.082h-0.532
			c-0.091,0-0.166,0.028-0.225,0.082c-0.059,0.055-0.088,0.127-0.088,0.219v0.737c0,0.082,0.029,0.149,0.088,0.203
			C263.408,20.286,263.483,20.313,263.574,20.313"/>
		<path clip-path="url(#SVGID_4_)" fill="#1D2A5D" d="M286.104,29.4h-0.533c-0.082,0-0.156,0.028-0.225,0.083
			c-0.067,0.054-0.102,0.126-0.102,0.218v0.737c0,0.072,0.034,0.137,0.102,0.198c0.068,0.058,0.143,0.088,0.225,0.088h0.533
			c0.082,0,0.155-0.03,0.218-0.088c0.064-0.061,0.096-0.126,0.096-0.198v-0.737c0-0.092-0.031-0.164-0.096-0.218
			C286.26,29.428,286.187,29.4,286.104,29.4"/>
		<path clip-path="url(#SVGID_4_)" fill="#1D2A5D" d="M283.866,29.4h-0.533c-0.091,0-0.166,0.028-0.225,0.083
			c-0.058,0.054-0.087,0.126-0.087,0.218v0.737c0,0.072,0.029,0.137,0.087,0.198c0.059,0.058,0.134,0.088,0.225,0.088h0.533
			c0.082,0,0.155-0.03,0.218-0.088c0.064-0.061,0.096-0.126,0.096-0.198v-0.737c0-0.092-0.029-0.164-0.089-0.218
			C284.032,29.428,283.957,29.4,283.866,29.4"/>
		<path clip-path="url(#SVGID_4_)" fill="#1D2A5D" d="M332.797,17.884h-0.668c-0.073,0-0.135,0.024-0.184,0.074
			c-0.05,0.052-0.075,0.113-0.075,0.185v8.325c0,0.236-0.036,0.377-0.104,0.422c-0.068,0.045-0.233,0.07-0.498,0.07h-5.078h-0.083
			h-0.095c-0.072,0-0.163-0.01-0.271-0.028c-0.109-0.019-0.217-0.05-0.321-0.096c-0.104-0.045-0.197-0.11-0.279-0.192
			s-0.128-0.186-0.137-0.313c0.018-0.099,0.029-0.214,0.034-0.341s0.006-0.247,0.006-0.356v-0.763c0-0.956-0.231-1.678-0.695-2.17
			c-0.464-0.491-1.151-0.737-2.062-0.737c-0.909,0-1.607,0.251-2.095,0.751c-0.485,0.501-0.729,1.22-0.729,2.156v1.311
			c0,0.153-0.014,0.285-0.041,0.395c-0.019,0.091-0.065,0.161-0.143,0.21c-0.078,0.052-0.167,0.091-0.267,0.118
			c-0.101,0.027-0.202,0.042-0.308,0.047c-0.104,0.004-0.188,0.008-0.253,0.008h-0.354h-0.082h-6.922h-0.081h-0.107
			c-0.082,0-0.178-0.005-0.287-0.014c-0.109-0.011-0.217-0.025-0.321-0.05c-0.104-0.021-0.199-0.053-0.287-0.094
			c-0.087-0.042-0.143-0.098-0.17-0.17v-8.489c0-0.072-0.022-0.133-0.068-0.185c-0.046-0.05-0.104-0.074-0.177-0.074h-0.67
			c-0.071,0-0.134,0.024-0.183,0.074c-0.05,0.052-0.074,0.113-0.074,0.185v8.312c0,0.117-0.036,0.211-0.104,0.279
			c-0.069,0.068-0.152,0.117-0.253,0.15c-0.101,0.033-0.204,0.051-0.314,0.062c-0.108,0.009-0.209,0.014-0.3,0.014h-0.642h-0.082
			h-6.92h-0.082h-0.942c0-0.092,0.003-0.199,0.008-0.321c0.004-0.122,0.008-0.249,0.013-0.381c0.004-0.132,0.007-0.259,0.007-0.381
			v-0.306v-0.164c0-0.607-0.091-1.126-0.272-1.558c-0.184-0.43-0.447-0.783-0.791-1.055c-0.347-0.272-0.771-0.471-1.271-0.597
			c-0.499-0.127-1.068-0.193-1.705-0.193c-0.236,0-0.506,0.005-0.806,0.016c-0.3,0.009-0.668,0.021-1.105,0.039
			c0.01-0.127,0.066-0.326,0.171-0.595c0.104-0.268,0.234-0.55,0.391-0.843l1.281-2.422c0.027-0.055,0.041-0.106,0.041-0.151
			c0-0.045-0.017-0.084-0.048-0.116c-0.031-0.031-0.085-0.048-0.157-0.048h-0.641c-0.101,0-0.177,0.027-0.225,0.082
			c-0.051,0.056-0.1,0.117-0.145,0.191l-1.023,1.882c-0.146,0.265-0.271,0.51-0.375,0.739c-0.105,0.226-0.191,0.441-0.26,0.647
			c-0.067,0.204-0.12,0.407-0.155,0.607c-0.038,0.202-0.057,0.41-0.057,0.629v0.149c0,0.073,0.006,0.118,0.015,0.137
			c0.027,0.137,0.118,0.204,0.271,0.204c0.056,0,0.173-0.001,0.355-0.006c0.182-0.006,0.401-0.007,0.656-0.007
			c0.254,0,0.529-0.003,0.825-0.007c0.294-0.004,0.579-0.007,0.853-0.007c0.455,0,0.869,0.037,1.244,0.11
			c0.37,0.071,0.688,0.202,0.953,0.388c0.264,0.188,0.469,0.442,0.613,0.764c0.146,0.324,0.22,0.731,0.22,1.222
			c0,0.217-0.002,0.446-0.008,0.682c-0.006,0.237-0.011,0.459-0.02,0.67h-11.138h-0.083h-0.107c-0.082,0-0.179-0.005-0.287-0.015
			c-0.109-0.01-0.216-0.024-0.321-0.048c-0.104-0.023-0.2-0.054-0.287-0.095c-0.086-0.041-0.143-0.098-0.171-0.171v-3.753
			c0-0.073-0.023-0.134-0.074-0.184c-0.05-0.05-0.111-0.075-0.185-0.075h-0.627c-0.072,0-0.134,0.025-0.185,0.075
			c-0.05,0.05-0.074,0.111-0.074,0.184v3.576c0,0.118-0.035,0.211-0.104,0.28c-0.068,0.068-0.152,0.118-0.252,0.151
			c-0.1,0.031-0.205,0.05-0.313,0.06c-0.11,0.01-0.21,0.015-0.301,0.015h-0.531h-0.082h-7.012h-0.082h-6.921h-0.082h-0.232
			c-0.292,0-0.522-0.053-0.695-0.158c-0.174-0.105-0.259-0.34-0.259-0.702v-3.834c0-0.074-0.012-0.132-0.035-0.172
			c-0.021-0.042-0.08-0.07-0.171-0.09c-0.1-0.026-0.218-0.051-0.354-0.074c-0.138-0.022-0.28-0.043-0.432-0.061
			c-0.149-0.018-0.302-0.032-0.457-0.042c-0.153-0.009-0.292-0.012-0.407-0.012c-0.52,0-0.995,0.056-1.429,0.171
			c-0.431,0.111-0.804,0.29-1.118,0.531c-0.313,0.242-0.558,0.552-0.729,0.935c-0.173,0.381-0.26,0.841-0.26,1.378v0.354
			c0,0.884,0.228,1.557,0.683,2.02c0.455,0.464,1.105,0.697,1.951,0.697h0.123c0.382,0,0.735-0.044,1.057-0.13
			c0.323-0.086,0.563-0.23,0.718-0.43c0.145,0.29,0.356,0.495,0.635,0.614c0.276,0.119,0.62,0.177,1.029,0.177h0.383h0.082h6.921
			h0.082h7.005c0,0,0.004,0.001,0.007,0.001h0.449c0.255,0,0.539-0.029,0.854-0.09c0.313-0.058,0.585-0.179,0.813-0.361
			c0.209,0.182,0.475,0.303,0.798,0.361c0.322,0.061,0.626,0.09,0.907,0.09h0.164v-0.001h13.226h0.082h6.92h0.082h0.519
			c0.254,0,0.539-0.029,0.854-0.088c0.314-0.06,0.584-0.18,0.813-0.363c0.099,0.092,0.219,0.168,0.361,0.226
			c0.14,0.059,0.286,0.104,0.436,0.137c0.151,0.032,0.303,0.054,0.458,0.07c0.155,0.012,0.3,0.018,0.438,0.018h0.08h0.081h6.922
			h0.082h0.246c0.337,0,0.65-0.033,0.941-0.101c0.291-0.07,0.528-0.208,0.71-0.416c0.209,0.307,0.511,0.539,0.907,0.687
			c0.396,0.151,0.85,0.227,1.358,0.227c1.027,0,1.756-0.31,2.183-0.929c0.173,0.182,0.403,0.316,0.69,0.403
			c0.286,0.085,0.579,0.129,0.879,0.129h0.095h0.083h4.71c0.154,0,0.319-0.002,0.498-0.006c0.178-0.005,0.349-0.012,0.512-0.028
			c0.164-0.013,0.314-0.026,0.451-0.04c0.136-0.014,0.24-0.035,0.313-0.063c0.109-0.045,0.182-0.099,0.218-0.162
			c0.035-0.065,0.063-0.142,0.081-0.234c0.02-0.108,0.032-0.23,0.041-0.368c0.01-0.137,0.017-0.276,0.021-0.423
			c0.004-0.144,0.008-0.287,0.008-0.422v-0.369v-7.874c0-0.072-0.023-0.133-0.07-0.185C332.928,17.908,332.87,17.884,332.797,17.884
			 M266.331,26.056c0,0.146-0.036,0.267-0.109,0.363c-0.072,0.095-0.168,0.171-0.286,0.225c-0.119,0.055-0.25,0.092-0.395,0.11
			c-0.146,0.019-0.288,0.027-0.425,0.027h-0.259c-0.592,0-1.011-0.153-1.255-0.458c-0.246-0.305-0.369-0.733-0.369-1.28v-0.288
			c0-0.365,0.058-0.67,0.171-0.911c0.113-0.242,0.268-0.435,0.464-0.575c0.195-0.142,0.43-0.24,0.702-0.295
			c0.273-0.054,0.574-0.082,0.901-0.082c0.119,0,0.245,0.005,0.381,0.013c0.137,0.01,0.297,0.023,0.479,0.042V26.056z
			 M323.897,25.594c0,0.628-0.122,1.094-0.368,1.399c-0.245,0.304-0.668,0.457-1.269,0.457c-0.437,0-0.791-0.086-1.064-0.259
			c-0.272-0.173-0.451-0.45-0.533-0.832c-0.036-0.209-0.054-0.464-0.054-0.765v-0.627c0-0.629,0.13-1.106,0.389-1.434
			c0.26-0.327,0.689-0.491,1.289-0.491c0.591,0,1.008,0.167,1.25,0.499c0.239,0.332,0.36,0.808,0.36,1.426V25.594z"/>
		<path clip-path="url(#SVGID_4_)" fill="#1D2A5D" d="M336.468,17.952c-0.046-0.056-0.104-0.083-0.178-0.083h-0.668
			c-0.073,0-0.135,0.027-0.185,0.083c-0.051,0.054-0.075,0.119-0.075,0.19v9.718c0,0.071,0.024,0.135,0.075,0.19
			c0.05,0.054,0.111,0.082,0.185,0.082h0.668c0.073,0,0.132-0.028,0.178-0.082c0.045-0.055,0.069-0.119,0.069-0.19v-9.718
			C336.537,18.071,336.513,18.006,336.468,17.952"/>
		<path clip-path="url(#SVGID_4_)" fill="#1D2A5D" d="M99.158,101.652c-0.424,0-0.801,0.158-1.122,0.471
			c-0.321,0.312-0.484,0.686-0.484,1.111s0.163,0.801,0.484,1.112c0.321,0.313,0.698,0.469,1.122,0.469
			c0.441,0,0.823-0.158,1.135-0.471c0.313-0.313,0.471-0.685,0.471-1.11c0-0.425-0.158-0.799-0.471-1.11
			C99.981,101.811,99.599,101.652,99.158,101.652"/>
		<path clip-path="url(#SVGID_4_)" fill="#1D2A5D" d="M95.896,101.652c-0.424,0-0.802,0.158-1.122,0.471
			c-0.321,0.312-0.484,0.686-0.484,1.111s0.163,0.801,0.484,1.112c0.32,0.313,0.698,0.469,1.122,0.469s0.801-0.156,1.121-0.469
			c0.322-0.312,0.485-0.687,0.485-1.112s-0.163-0.8-0.485-1.111C96.697,101.811,96.32,101.652,95.896,101.652"/>
		<path clip-path="url(#SVGID_4_)" fill="#1D2A5D" d="M141.385,83.047c0.441,0,0.823-0.158,1.136-0.472
			c0.312-0.312,0.471-0.685,0.471-1.11c0-0.425-0.159-0.798-0.471-1.109c-0.313-0.313-0.695-0.473-1.136-0.473
			c-0.424,0-0.801,0.158-1.121,0.471c-0.322,0.312-0.485,0.686-0.485,1.111c0,0.427,0.163,0.801,0.485,1.112
			C140.584,82.89,140.961,83.047,141.385,83.047"/>
		<path clip-path="url(#SVGID_4_)" fill="#1D2A5D" d="M176.102,97.008c-0.425,0-0.803,0.157-1.121,0.47
			c-0.322,0.312-0.485,0.686-0.485,1.111c0,0.427,0.163,0.801,0.485,1.112c0.319,0.313,0.697,0.47,1.121,0.47
			c0.439,0,0.823-0.159,1.136-0.472s0.47-0.685,0.47-1.11c0-0.425-0.157-0.798-0.47-1.109
			C176.925,97.166,176.543,97.008,176.102,97.008"/>
		<path clip-path="url(#SVGID_4_)" fill="#1D2A5D" d="M172.84,97.008c-0.425,0-0.802,0.157-1.122,0.47
			c-0.321,0.312-0.484,0.686-0.484,1.111c0,0.427,0.163,0.801,0.484,1.112c0.321,0.313,0.698,0.47,1.122,0.47
			c0.423,0,0.801-0.157,1.122-0.47c0.321-0.312,0.484-0.686,0.484-1.112c0-0.426-0.163-0.8-0.484-1.111
			C173.641,97.165,173.264,97.008,172.84,97.008"/>
		<path clip-path="url(#SVGID_4_)" fill="#1D2A5D" d="M195.943,83.047c0.441,0,0.823-0.158,1.136-0.472
			c0.313-0.312,0.47-0.685,0.47-1.11c0-0.425-0.157-0.798-0.47-1.109c-0.313-0.313-0.694-0.473-1.136-0.473
			c-0.424,0-0.802,0.158-1.122,0.471c-0.321,0.312-0.484,0.686-0.484,1.111c0,0.427,0.163,0.801,0.484,1.112
			C195.142,82.89,195.52,83.047,195.943,83.047"/>
		<path clip-path="url(#SVGID_4_)" fill="#1D2A5D" d="M237.924,82.972c0.425,0,0.802-0.156,1.121-0.469
			c0.322-0.312,0.484-0.686,0.484-1.112c0-0.426-0.162-0.8-0.484-1.111c-0.32-0.313-0.697-0.47-1.121-0.47
			c-0.425,0-0.802,0.157-1.122,0.47c-0.321,0.312-0.484,0.686-0.484,1.111c0,0.427,0.163,0.802,0.484,1.112
			C237.121,82.815,237.499,82.972,237.924,82.972"/>
		<path clip-path="url(#SVGID_4_)" fill="#1D2A5D" d="M241.21,82.972c0.441,0,0.823-0.157,1.136-0.471
			c0.313-0.311,0.471-0.684,0.471-1.11c0-0.425-0.158-0.799-0.471-1.11c-0.313-0.313-0.695-0.471-1.136-0.471
			c-0.424,0-0.801,0.157-1.121,0.469c-0.322,0.312-0.485,0.686-0.485,1.112c0,0.428,0.163,0.803,0.485,1.112
			C240.408,82.815,240.785,82.972,241.21,82.972"/>
		<path clip-path="url(#SVGID_4_)" fill="#1D2A5D" d="M268.385,86.859c-0.838-0.956-2.221-1.44-4.107-1.44h-3.177l4.062-4.229
			l-1.629-1.601l-5.779,5.981v2.592h6.523c0.827,0,1.438,0.16,1.815,0.477c0.386,0.328,0.582,0.881,0.582,1.648v0.05
			c0,1.645-0.865,2.445-2.645,2.445h-20.671c-1.629,0-2.421-0.953-2.421-2.915v-5.239h-2.793v5.239c0,1.962-0.792,2.915-2.421,2.915
			h-10.155c-0.651,0-1.2-0.154-1.625-0.459c-0.503-0.381-0.747-0.886-0.747-1.543c0-1.668-0.672-3.253-1.997-4.713
			c-1.77-1.935-4.194-3.018-7.208-3.219l-0.146-0.009l-0.573,2.49l0.201,0.014c2.432,0.177,4.281,0.916,5.497,2.197
			c0.461,0.476,0.823,1.027,1.077,1.638c0.253,0.611,0.382,1.216,0.382,1.799c0,1.152-0.616,1.735-1.878,1.78l-0.506,0.001
			c-0.073,0.004-0.141,0.008-0.204,0.011c0.487-0.716,0.734-1.523,0.734-2.409c0-0.975-0.278-1.816-0.828-2.505
			c-0.708-0.88-1.684-1.325-2.902-1.325c-1.098,0-2.003,0.351-2.694,1.04c-0.705,0.724-1.063,1.637-1.063,2.717
			c0,0.921,0.258,1.76,0.767,2.495h-12.132c-1.629,0-2.421-0.953-2.421-2.915v-5.239h-2.793v5.239c0,1.962-0.792,2.915-2.421,2.915
			H178.77c-1.629,0-2.421-0.953-2.421-2.915v-5.239h-2.793v5.239c0,1.962-0.792,2.915-2.421,2.915h-25.969
			c-1.629,0-2.421-0.953-2.421-2.915v-5.239h-2.793v5.239c0,1.962-0.792,2.915-2.421,2.915h-37.31v2.719h2.3
			c-0.116,0.679-0.566,1.221-1.369,1.651c-0.91,0.494-2.079,0.744-3.476,0.744c-1.515,0-2.724-0.376-3.594-1.119
			c-0.911-0.784-1.373-1.839-1.373-3.131c0-0.971,0.276-1.982,0.82-3.008l0.092-0.171l-2.288-0.887l-0.077,0.114
			c-0.823,1.227-1.241,2.622-1.241,4.149c0,1.883,0.566,3.42,1.681,4.57c1.328,1.361,3.274,2.053,5.782,2.053
			c2.196,0,4.005-0.408,5.377-1.21c1.494-0.887,2.308-2.151,2.422-3.757h32.477c1.573,0,2.785-0.49,3.607-1.453
			c0.822,0.963,2.035,1.453,3.608,1.453h26.389c1.573,0,2.785-0.49,3.607-1.453c0.822,0.963,2.036,1.453,3.608,1.453h13.738
			c1.573,0,2.786-0.49,3.608-1.453c0.821,0.963,2.033,1.453,3.607,1.453h13.441c0.653,0,1.286-0.113,1.878-0.334
			c0.607,0.221,1.265,0.334,1.952,0.334h1.977c1.415,0,2.513-0.383,3.268-1.14c0.826,0.757,1.944,1.14,3.329,1.14h10.576
			c1.573,0,2.785-0.49,3.607-1.453c0.822,0.963,2.034,1.453,3.606,1.453h21.116c1.567,0,2.801-0.371,3.669-1.103
			c1.025-0.854,1.545-2.172,1.545-3.938C269.491,88.891,269.118,87.681,268.385,86.859 M215.847,91.654
			c-0.239,0.393-0.576,0.705-1.001,0.934c-0.427-0.229-0.77-0.543-1.017-0.936c-0.26-0.415-0.393-0.892-0.393-1.416
			c0-0.497,0.127-0.89,0.376-1.169c0.249-0.276,0.587-0.412,1.033-0.412c0.43,0,0.759,0.136,1.007,0.412
			c0.25,0.279,0.376,0.682,0.376,1.194C216.229,90.77,216.101,91.238,215.847,91.654"/>
		<path clip-path="url(#SVGID_4_)" fill="#1D2A5D" d="M257.208,84.682l4.79-4.789c0.485-0.485,0.485-1.281,0-1.769
			c-0.486-0.485-1.282-0.485-1.77,0l-4.788,4.79c-0.486,0.487-0.486,1.282,0,1.768C255.927,85.168,256.722,85.168,257.208,84.682"/>
	</g>
</g>
</svg>
